<?xml version="1.0" standalone="no"?><!DOCTYPE svg PUBLIC "-//W3C//DTD SVG 1.1//EN" "http://www.w3.org/Graphics/SVG/1.1/DTD/svg11.dtd"><svg t="1562748258747" class="icon" viewBox="0 0 1024 1024" version="1.1" xmlns="http://www.w3.org/2000/svg" p-id="1699" width="32" height="32" xmlns:xlink="http://www.w3.org/1999/xlink"><defs><style type="text/css"></style></defs><path d="M800.169183 123.908452c-38.10393-39.4752-82.614539-70.326539-132.296348-91.692522C618.170991 10.838817 565.726609 0 512 0s-106.168765 10.838817-155.875061 32.21593c-49.679583 21.365983-94.190191 52.217322-132.294122 91.692522-81.06073 83.97913-125.700452 201.411896-125.700452 330.667409 0 132.527861 45.000348 272.991722 123.465461 385.373496C303.2576 956.91687 409.108035 1024 512 1024s208.7424-67.08313 290.404174-184.048417c78.462887-112.384 123.465461-252.845635 123.465461-385.373496 0-129.257739-44.639722-246.690504-125.700452-330.669635z m-34.268383 690.556661C692.682574 919.333843 600.139687 979.478261 512 979.478261c-88.139687 0-180.682574-60.144417-253.9008-165.013148-72.289948-103.541983-115.447096-238.08-115.447096-359.889252C142.652104 188.235687 332.949148 44.521739 512 44.521739s369.347896 143.713948 369.347896 410.054122c0 121.809252-43.157148 256.34727-115.447096 359.889252z" p-id="1700" fill="#2c2c2c"></path><path d="M487.107896 558.349357c-1.395757-1.153113-140.755478-116.874017-240.764661-244.168348a22.256417 22.256417 0 0 0-39.221426 8.864278c-14.979339 66.557774-13.205148 142.565287 4.870678 208.533148 23.28487 84.971965 72.165287 148.69593 141.360974 184.284382a22.247513 22.247513 0 0 0 25.902748-4.038121c2.982957-2.976278 73.507617-73.467548 111.328834-122.768696a22.258643 22.258643 0 0 0-3.477147-30.706643z m-127.492453 109.995408c-100.910748-61.765009-124.8768-190.76007-116.353113-287.752904 76.797774 89.882713 163.0208 167.034435 198.7584 197.881322-27.211687 32.734609-63.85753 70.905322-82.405287 89.871582zM816.878191 323.045287a22.26087 22.26087 0 0 0-39.221426-8.864278c-99.909009 127.16967-239.366678 243.015235-240.764661 244.170574a22.265322 22.265322 0 0 0-3.479374 30.704417c37.821217 49.301148 108.343652 119.792417 111.328835 122.768696a22.247513 22.247513 0 0 0 25.900522 4.038121c69.195687-35.588452 118.07833-99.314643 141.3632-184.284382 18.078052-65.965635 19.85447-141.973148 4.872904-208.533148z m-152.495861 345.301704c-18.541078-18.961809-55.184696-57.12807-82.40306-89.873808 35.728696-30.840209 121.951722-107.989704 198.756173-197.879096 8.523687 96.992835-15.442365 225.987896-116.353113 287.752904z" p-id="1701" fill="#2c2c2c"></path></svg>